<svg xmlns="http://www.w3.org/2000/svg" xmlns:xlink="http://www.w3.org/1999/xlink" width="1770" height="993.53"><rect width="1770" height="993.53" rx="5" ry="5" class="a"/><svg y="0%" x="0%"><circle cx="20" cy="20" r="6" fill="#ff5f58"/><circle cx="40" cy="20" r="6" fill="#ffbd2e"/><circle cx="60" cy="20" r="6" fill="#18c132"/></svg><svg height="933.53" viewBox="0 0 173 93.353" width="1730" x="15" xmlns="http://www.w3.org/2000/svg" xmlns:xlink="http://www.w3.org/1999/xlink" y="50"><style>@keyframes j{0%{transform:translateX(0)}.06%{transform:translateX(-173px)}26.13%{transform:translateX(-346px)}26.64%{transform:translateX(-519px)}27.17%{transform:translateX(-692px)}28.02%{transform:translateX(-865px)}29.22%{transform:translateX(-1038px)}29.69%{transform:translateX(-1211px)}30.2%{transform:translateX(-1384px)}30.62%{transform:translateX(-1557px)}31.13%{transform:translateX(-1730px)}31.55%{transform:translateX(-1903px)}32.44%{transform:translateX(-2076px)}32.8%{transform:translateX(-2249px)}33.24%{transform:translateX(-2422px)}33.95%{transform:translateX(-2595px)}34.82%{transform:translateX(-2768px)}35.88%{transform:translateX(-3287px)}35.89%{transform:translateX(-3460px)}63.07%{transform:translateX(-3633px)}64.03%{transform:translateX(-3806px)}64.41%{transform:translateX(-3979px)}64.77%{transform:translateX(-4152px)}65.65%{transform:translateX(-4325px)}70.71%{transform:translateX(-4498px)}70.96%{transform:translateX(-4671px)}71.42%{transform:translateX(-4844px)}71.77%{transform:translateX(-5017px)}72.24%{transform:translateX(-5190px)}72.7%{transform:translateX(-5363px)}74.31%{transform:translateX(-5536px)}74.66%{transform:translateX(-5709px)}74.97%{transform:translateX(-5882px)}76.62%{transform:translateX(-6055px)}77.03%{transform:translateX(-6228px)}77.54%{transform:translateX(-6401px)}79.63%{transform:translateX(-6574px)}81.33%{transform:translateX(-6747px)}83.57%{transform:translateX(-7093px)}83.58%{transform:translateX(-7266px)}to{transform:translateX(-7612px)}}.a{fill:#282d35}.f,.g{fill:#a8cc8c;white-space:pre}.g{fill:#b9c0cb}</style><g font-family="Monaco,Consolas,Menlo,'Bitstream Vera Sans Mono','Powerline Symbols',monospace" font-size="1.67"><defs><symbol id="1"><text y="1.67" class="f">bash</text><text x="5.01" y="1.67" class="f">~/gif_maker:()$</text></symbol><symbol id="2"><text y="1.67" class="f">bash</text><text x="5.01" y="1.67" class="f">~/gif_maker:()$</text><text x="21.042" y="1.67" class="g">cat</text></symbol><symbol id="3"><text y="1.67" class="f">bash</text><text x="5.01" y="1.67" class="f">~/gif_maker:()$</text><text x="21.042" y="1.67" class="g">cat</text><text x="25.05" y="1.67" class="g">hello</text></symbol><symbol id="4"><text y="1.67" class="f">bash</text><text x="5.01" y="1.67" class="f">~/gif_maker:()$</text><text x="21.042" y="1.67" class="g">cat</text><text x="25.05" y="1.67" class="g">hello</text><text x="31.062" y="1.67" class="g">world</text></symbol><symbol id="5"><text y="1.67" class="g">cat:</text><text x="5.01" y="1.67" class="g">hello:</text><text x="12.024" y="1.67" class="g">No</text><text x="15.03" y="1.67" class="g">such</text><text x="20.04" y="1.67" class="g">file</text><text x="25.05" y="1.67" class="g">or</text><text x="28.056" y="1.67" class="g">directory</text></symbol><symbol id="6"><text y="1.67" class="g">cat:</text><text x="5.01" y="1.67" class="g">world:</text><text x="12.024" y="1.67" class="g">No</text><text x="15.03" y="1.67" class="g">such</text><text x="20.04" y="1.67" class="g">file</text><text x="25.05" y="1.67" class="g">or</text><text x="28.056" y="1.67" class="g">directory</text></symbol><symbol id="7"><text y="1.67" class="f">bash</text><text x="5.01" y="1.67" class="f">~/gif_maker:()$</text><text x="21.042" y="1.67" class="g">echo</text></symbol><symbol id="8"><text y="1.67" class="f">bash</text><text x="5.01" y="1.67" class="f">~/gif_maker:()$</text><text x="21.042" y="1.67" class="g">echo</text><text x="26.052" y="1.67" class="g">hello</text></symbol><symbol id="9"><text y="1.67" class="f">bash</text><text x="5.01" y="1.67" class="f">~/gif_maker:()$</text><text x="21.042" y="1.67" class="g">echo</text><text x="26.052" y="1.67" class="g">hello</text><text x="32.064" y="1.67" class="g">world</text></symbol><symbol id="10"><text y="1.67" class="f">bash</text><text x="5.01" y="1.67" class="f">~/gif_maker:()$</text><text x="21.042" y="1.67" class="g">echo</text><text x="26.052" y="1.67" class="g">hello</text><text x="32.064" y="1.67" class="g">world</text><text x="38.076" y="1.67" class="g">-n</text></symbol><symbol id="11"><text y="1.67" class="g">hello</text><text x="6.012" y="1.67" class="g">world</text><text x="12.024" y="1.67" class="g">-n</text></symbol><symbol id="a"><path fill="transparent" d="M0 0h173v43H0z"/></symbol><symbol id="b"><path fill="#6f7683" d="M0 0h1.102v2.171H0z"/></symbol></defs><path class="a" d="M0 0h173v93.353H0z"/><g style="animation-duration:36.770225s;animation-iteration-count:infinite;animation-name:j;animation-timing-function:steps(1,end)"><svg width="7785"><svg><use xlink:href="#a"/><use xlink:href="#b" x="-.004"/></svg><svg x="173"><use xlink:href="#a"/><use xlink:href="#b" x="20.996"/><use xlink:href="#1"/></svg><svg x="346"><use xlink:href="#a"/><use xlink:href="#b" x="21.996"/><text y="1.67" class="f">bash</text><text x="5.01" y="1.67" class="f">~/gif_maker:()$</text><text x="21.042" y="1.67" class="g">c</text></svg><svg x="519"><use xlink:href="#a"/><use xlink:href="#b" x="22.996"/><text y="1.67" class="f">bash</text><text x="5.01" y="1.67" class="f">~/gif_maker:()$</text><text x="21.042" y="1.67" class="g">ca</text></svg><svg x="692"><use xlink:href="#a"/><use xlink:href="#b" x="23.996"/><use xlink:href="#2"/></svg><svg x="865"><use xlink:href="#a"/><use xlink:href="#b" x="24.996"/><use xlink:href="#2"/></svg><svg x="1038"><use xlink:href="#a"/><use xlink:href="#b" x="25.996"/><text y="1.67" class="f">bash</text><text x="5.01" y="1.67" class="f">~/gif_maker:()$</text><text x="21.042" y="1.67" class="g">cat</text><text x="25.05" y="1.67" class="g">h</text></svg><svg x="1211"><use xlink:href="#a"/><use xlink:href="#b" x="26.996"/><text y="1.67" class="f">bash</text><text x="5.01" y="1.67" class="f">~/gif_maker:()$</text><text x="21.042" y="1.67" class="g">cat</text><text x="25.05" y="1.67" class="g">he</text></svg><svg x="1384"><use xlink:href="#a"/><use xlink:href="#b" x="27.996"/><text y="1.67" class="f">bash</text><text x="5.01" y="1.67" class="f">~/gif_maker:()$</text><text x="21.042" y="1.67" class="g">cat</text><text x="25.05" y="1.67" class="g">hel</text></svg><svg x="1557"><use xlink:href="#a"/><use xlink:href="#b" x="28.996"/><text y="1.67" class="f">bash</text><text x="5.01" y="1.67" class="f">~/gif_maker:()$</text><text x="21.042" y="1.67" class="g">cat</text><text x="25.05" y="1.67" class="g">hell</text></svg><svg x="1730"><use xlink:href="#a"/><use xlink:href="#b" x="29.996"/><use xlink:href="#3"/></svg><svg x="1903"><use xlink:href="#a"/><use xlink:href="#b" x="30.996"/><use xlink:href="#3"/></svg><svg x="2076"><use xlink:href="#a"/><use xlink:href="#b" x="31.996"/><text y="1.67" class="f">bash</text><text x="5.01" y="1.67" class="f">~/gif_maker:()$</text><text x="21.042" y="1.67" class="g">cat</text><text x="25.05" y="1.67" class="g">hello</text><text x="31.062" y="1.67" class="g">w</text></svg><svg x="2249"><use xlink:href="#a"/><use xlink:href="#b" x="32.996"/><text y="1.67" class="f">bash</text><text x="5.01" y="1.67" class="f">~/gif_maker:()$</text><text x="21.042" y="1.67" class="g">cat</text><text x="25.05" y="1.67" class="g">hello</text><text x="31.062" y="1.67" class="g">wo</text></svg><svg x="2422"><use xlink:href="#a"/><use xlink:href="#b" x="33.996"/><text y="1.67" class="f">bash</text><text x="5.01" y="1.67" class="f">~/gif_maker:()$</text><text x="21.042" y="1.67" class="g">cat</text><text x="25.05" y="1.67" class="g">hello</text><text x="31.062" y="1.67" class="g">wor</text></svg><svg x="2595"><use xlink:href="#a"/><use xlink:href="#b" x="34.996"/><text y="1.67" class="f">bash</text><text x="5.01" y="1.67" class="f">~/gif_maker:()$</text><text x="21.042" y="1.67" class="g">cat</text><text x="25.05" y="1.67" class="g">hello</text><text x="31.062" y="1.67" class="g">worl</text></svg><svg x="2768"><use xlink:href="#a"/><use xlink:href="#b" x="35.996"/><use xlink:href="#4"/></svg><svg x="2941"><use xlink:href="#a"/><use xlink:href="#b" x="-.004" y="2.146"/><use xlink:href="#4"/></svg><svg x="3114"><use xlink:href="#a"/><use xlink:href="#b" x="9.996" y="2.146"/><use xlink:href="#4"/><text y="3.841" class="g">cat:</text><text x="5.01" y="3.841" class="g">hello</text></svg><svg x="3287"><use xlink:href="#a"/><use xlink:href="#b" x="-.004" y="6.488"/><use xlink:href="#4"/><use xlink:href="#5" y="2.171"/><use xlink:href="#6" y="4.342"/></svg><svg x="3460"><use xlink:href="#a"/><use xlink:href="#b" x="20.996" y="6.488"/><use xlink:href="#4"/><use xlink:href="#5" y="2.171"/><use xlink:href="#6" y="4.342"/><use xlink:href="#1" y="6.513"/></svg><svg x="3633"><use xlink:href="#a"/><use xlink:href="#b" x="21.996" y="6.488"/><use xlink:href="#4"/><use xlink:href="#5" y="2.171"/><use xlink:href="#6" y="4.342"/><text y="8.183" class="f">bash</text><text x="5.01" y="8.183" class="f">~/gif_maker:()$</text><text x="21.042" y="8.183" class="g">e</text></svg><svg x="3806"><use xlink:href="#a"/><use xlink:href="#b" x="22.996" y="6.488"/><use xlink:href="#4"/><use xlink:href="#5" y="2.171"/><use xlink:href="#6" y="4.342"/><text y="8.183" class="f">bash</text><text x="5.01" y="8.183" class="f">~/gif_maker:()$</text><text x="21.042" y="8.183" class="g">ec</text></svg><svg x="3979"><use xlink:href="#a"/><use xlink:href="#b" x="23.996" y="6.488"/><use xlink:href="#4"/><use xlink:href="#5" y="2.171"/><use xlink:href="#6" y="4.342"/><text y="8.183" class="f">bash</text><text x="5.01" y="8.183" class="f">~/gif_maker:()$</text><text x="21.042" y="8.183" class="g">ech</text></svg><svg x="4152"><use xlink:href="#a"/><use xlink:href="#b" x="24.996" y="6.488"/><use xlink:href="#4"/><use xlink:href="#5" y="2.171"/><use xlink:href="#6" y="4.342"/><use xlink:href="#7" y="6.513"/></svg><svg x="4325"><use xlink:href="#a"/><use xlink:href="#b" x="25.996" y="6.488"/><use xlink:href="#4"/><use xlink:href="#5" y="2.171"/><use xlink:href="#6" y="4.342"/><use xlink:href="#7" y="6.513"/></svg><svg x="4498"><use xlink:href="#a"/><use xlink:href="#b" x="26.996" y="6.488"/><use xlink:href="#4"/><use xlink:href="#5" y="2.171"/><use xlink:href="#6" y="4.342"/><text y="8.183" class="f">bash</text><text x="5.01" y="8.183" class="f">~/gif_maker:()$</text><text x="21.042" y="8.183" class="g">echo</text><text x="26.052" y="8.183" class="g">h</text></svg><svg x="4671"><use xlink:href="#a"/><use xlink:href="#b" x="27.996" y="6.488"/><use xlink:href="#4"/><use xlink:href="#5" y="2.171"/><use xlink:href="#6" y="4.342"/><text y="8.183" class="f">bash</text><text x="5.01" y="8.183" class="f">~/gif_maker:()$</text><text x="21.042" y="8.183" class="g">echo</text><text x="26.052" y="8.183" class="g">he</text></svg><svg x="4844"><use xlink:href="#a"/><use xlink:href="#b" x="28.996" y="6.488"/><use xlink:href="#4"/><use xlink:href="#5" y="2.171"/><use xlink:href="#6" y="4.342"/><text y="8.183" class="f">bash</text><text x="5.01" y="8.183" class="f">~/gif_maker:()$</text><text x="21.042" y="8.183" class="g">echo</text><text x="26.052" y="8.183" class="g">hel</text></svg><svg x="5017"><use xlink:href="#a"/><use xlink:href="#b" x="29.996" y="6.488"/><use xlink:href="#4"/><use xlink:href="#5" y="2.171"/><use xlink:href="#6" y="4.342"/><text y="8.183" class="f">bash</text><text x="5.01" y="8.183" class="f">~/gif_maker:()$</text><text x="21.042" y="8.183" class="g">echo</text><text x="26.052" y="8.183" class="g">hell</text></svg><svg x="5190"><use xlink:href="#a"/><use xlink:href="#b" x="30.996" y="6.488"/><use xlink:href="#4"/><use xlink:href="#5" y="2.171"/><use xlink:href="#6" y="4.342"/><use xlink:href="#8" y="6.513"/></svg><svg x="5363"><use xlink:href="#a"/><use xlink:href="#b" x="31.996" y="6.488"/><use xlink:href="#4"/><use xlink:href="#5" y="2.171"/><use xlink:href="#6" y="4.342"/><use xlink:href="#8" y="6.513"/></svg><svg x="5536"><use xlink:href="#a"/><use xlink:href="#b" x="32.996" y="6.488"/><use xlink:href="#4"/><use xlink:href="#5" y="2.171"/><use xlink:href="#6" y="4.342"/><text y="8.183" class="f">bash</text><text x="5.01" y="8.183" class="f">~/gif_maker:()$</text><text x="21.042" y="8.183" class="g">echo</text><text x="26.052" y="8.183" class="g">hello</text><text x="32.064" y="8.183" class="g">w</text></svg><svg x="5709"><use xlink:href="#a"/><use xlink:href="#b" x="33.996" y="6.488"/><use xlink:href="#4"/><use xlink:href="#5" y="2.171"/><use xlink:href="#6" y="4.342"/><text y="8.183" class="f">bash</text><text x="5.01" y="8.183" class="f">~/gif_maker:()$</text><text x="21.042" y="8.183" class="g">echo</text><text x="26.052" y="8.183" class="g">hello</text><text x="32.064" y="8.183" class="g">wo</text></svg><svg x="5882"><use xlink:href="#a"/><use xlink:href="#b" x="34.996" y="6.488"/><use xlink:href="#4"/><use xlink:href="#5" y="2.171"/><use xlink:href="#6" y="4.342"/><text y="8.183" class="f">bash</text><text x="5.01" y="8.183" class="f">~/gif_maker:()$</text><text x="21.042" y="8.183" class="g">echo</text><text x="26.052" y="8.183" class="g">hello</text><text x="32.064" y="8.183" class="g">wor</text></svg><svg x="6055"><use xlink:href="#a"/><use xlink:href="#b" x="35.996" y="6.488"/><use xlink:href="#4"/><use xlink:href="#5" y="2.171"/><use xlink:href="#6" y="4.342"/><text y="8.183" class="f">bash</text><text x="5.01" y="8.183" class="f">~/gif_maker:()$</text><text x="21.042" y="8.183" class="g">echo</text><text x="26.052" y="8.183" class="g">hello</text><text x="32.064" y="8.183" class="g">worl</text></svg><svg x="6228"><use xlink:href="#a"/><use xlink:href="#b" x="36.996" y="6.488"/><use xlink:href="#4"/><use xlink:href="#5" y="2.171"/><use xlink:href="#6" y="4.342"/><use xlink:href="#9" y="6.513"/></svg><svg x="6401"><use xlink:href="#a"/><use xlink:href="#b" x="37.996" y="6.488"/><use xlink:href="#4"/><use xlink:href="#5" y="2.171"/><use xlink:href="#6" y="4.342"/><use xlink:href="#9" y="6.513"/></svg><svg x="6574"><use xlink:href="#a"/><use xlink:href="#b" x="38.996" y="6.488"/><use xlink:href="#4"/><use xlink:href="#5" y="2.171"/><use xlink:href="#6" y="4.342"/><text y="8.183" class="f">bash</text><text x="5.01" y="8.183" class="f">~/gif_maker:()$</text><text x="21.042" y="8.183" class="g">echo</text><text x="26.052" y="8.183" class="g">hello</text><text x="32.064" y="8.183" class="g">world</text><text x="38.076" y="8.183" class="g">-</text></svg><svg x="6747"><use xlink:href="#a"/><use xlink:href="#b" x="39.996" y="6.488"/><use xlink:href="#4"/><use xlink:href="#5" y="2.171"/><use xlink:href="#6" y="4.342"/><use xlink:href="#10" y="6.513"/></svg><svg x="6920"><use xlink:href="#a"/><use xlink:href="#b" x="-.004" y="8.659"/><use xlink:href="#4"/><use xlink:href="#5" y="2.171"/><use xlink:href="#6" y="4.342"/><use xlink:href="#10" y="6.513"/></svg><svg x="7093"><use xlink:href="#a"/><use xlink:href="#b" x="-.004" y="10.83"/><use xlink:href="#4"/><use xlink:href="#5" y="2.171"/><use xlink:href="#6" y="4.342"/><use xlink:href="#10" y="6.513"/><use xlink:href="#11" y="8.684"/></svg><svg x="7266"><use xlink:href="#a"/><use xlink:href="#b" x="20.996" y="10.83"/><use xlink:href="#4"/><use xlink:href="#5" y="2.171"/><use xlink:href="#6" y="4.342"/><use xlink:href="#10" y="6.513"/><use xlink:href="#11" y="8.684"/><use xlink:href="#1" y="10.855"/></svg><svg x="7439"><use xlink:href="#a"/><use xlink:href="#b" x="-.004" y="13.001"/><use xlink:href="#4"/><use xlink:href="#5" y="2.171"/><use xlink:href="#6" y="4.342"/><use xlink:href="#10" y="6.513"/><use xlink:href="#11" y="8.684"/><use xlink:href="#1" y="10.855"/></svg><svg x="7612"><use xlink:href="#a"/><use xlink:href="#b" x="-.004" y="15.172"/><use xlink:href="#4"/><use xlink:href="#5" y="2.171"/><use xlink:href="#6" y="4.342"/><use xlink:href="#10" y="6.513"/><use xlink:href="#11" y="8.684"/><use xlink:href="#1" y="10.855"/><text y="14.696" class="g">exit</text></svg></svg></g></g></svg></svg>